<svg width="200" height="100" viewBox="0 0 200 100" xmlns="http://www.w3.org/2000/svg">
  <g fill="#0088cc">
    <!-- Left Gear -->
    <path d="M60.5 29.7c-1.4 0-2.5 1.1-2.5 2.5v5.1c-0.9 0.2-1.8 0.5-2.6 0.9l-3.6-3.6c-1-1-2.6-1-3.5 0l-3.5 3.5c-1 1-1 2.6 0 3.5l3.6 3.6c-0.4 0.8-0.7 1.7-0.9 2.6h-5.1c-1.4 0-2.5 1.1-2.5 2.5v5c0 1.4 1.1 2.5 2.5 2.5h5.1c0.2 0.9 0.5 1.8 0.9 2.6l-3.6 3.6c-1 1-1 2.6 0 3.5l3.5 3.5c1 1 2.6 1 3.5 0l3.6-3.6c0.8 0.4 1.7 0.7 2.6 0.9v5.1c0 1.4 1.1 2.5 2.5 2.5h5c1.4 0 2.5-1.1 2.5-2.5v-5.1c0.9-0.2 1.8-0.5 2.6-0.9l3.6 3.6c1 1 2.6 1 3.5 0l3.5-3.5c1-1 1-2.6 0-3.5l-3.6-3.6c0.4-0.8 0.7-1.7 0.9-2.6h5.1c1.4 0 2.5-1.1 2.5-2.5v-5c0-1.4-1.1-2.5-2.5-2.5h-5.1c-0.2-0.9-0.5-1.8-0.9-2.6l3.6-3.6c1-1 1-2.6 0-3.5l-3.5-3.5c-1-1-2.6-1-3.5 0l-3.6 3.6c-0.8-0.4-1.7-0.7-2.6-0.9v-5.1c0-1.4-1.1-2.5-2.5-2.5h-5zM63 45.6c4.4 0 8 3.6 8 8s-3.6 8-8 8-8-3.6-8-8 3.6-8 8-8z" />
    
    <!-- Center Brackets -->
    <path d="M82 46.5l-5 5 5 5M98 46.5l5 5-5 5" />
    
    <!-- Right Gear -->
    <path d="M120.5 20c-1.8 0-3.3 1.5-3.3 3.3v6.9c-1.2 0.3-2.4 0.7-3.5 1.2l-4.9-4.9c-1.3-1.3-3.4-1.3-4.7 0l-4.7 4.7c-1.3 1.3-1.3 3.4 0 4.7l4.9 4.9c-0.5 1.1-0.9 2.3-1.2 3.5H96c-1.8 0-3.3 1.5-3.3 3.3v6.7c0 1.8 1.5 3.3 3.3 3.3h7.1c0.3 1.2 0.7 2.4 1.2 3.5l-4.9 4.9c-1.3 1.3-1.3 3.4 0 4.7l4.7 4.7c1.3 1.3 3.4 1.3 4.7 0l4.9-4.9c1.1 0.5 2.3 0.9 3.5 1.2v7.1c0 1.8 1.5 3.3 3.3 3.3h6.7c1.8 0 3.3-1.5 3.3-3.3v-7.1c1.2-0.3 2.4-0.7 3.5-1.2l4.9 4.9c1.3 1.3 3.4 1.3 4.7 0l4.7-4.7c1.3-1.3 1.3-3.4 0-4.7l-4.9-4.9c0.5-1.1 0.9-2.3 1.2-3.5h7.1c1.8 0 3.3-1.5 3.3-3.3v-6.7c0-1.8-1.5-3.3-3.3-3.3h-7.1c-0.3-1.2-0.7-2.4-1.2-3.5l4.9-4.9c1.3-1.3 1.3-3.4 0-4.7l-4.7-4.7c-1.3-1.3-3.4-1.3-4.7 0l-4.9 4.9c-1.1-0.5-2.3-0.9-3.5-1.2v-6.9c0-1.8-1.5-3.3-3.3-3.3h-6.7zM123.9 41c6 0 10.9 4.9 10.9 10.9s-4.9 10.9-10.9 10.9-10.9-4.9-10.9-10.9S117.9 41 123.9 41z" />
  </g>
</svg>